#!OML:ASF H:\BabyWalks\Project 1\Capture day 1\Session 1\baby.ASF
:FULLY-SPECIFIED
:DEGREES
769
root 32.7957 16.8091 15.0176 -49.5834 77.1221 -45.3597
lowerback 14.8354 2.81832 4.83806
upperback 5.50391 4.69754 1.2219
thorax -2.18736 2.48189 -2.20201
lowerneck 3.96164 1.73961 10.4963
upperneck 0.311251 2.75042 -5.97979
head -0.357703 1.43708 -3.87385
rclavicle 2.3059e-014 3.97569e-015
rhumerus -42.9133 3.32796 -80.8176
rradius 54.46
rwrist 0.0848573
rhand -13.339 -18.4298
rfingers 7.12502
rthumb 12.7664 -48.0194
lclavicle 2.3059e-014 3.97569e-015
lhumerus -41.3197 -7.27129 76.0923
lradius 47.7076
lwrist -0.073125
lhand 3.31893 8.41947
lfingers 7.12502
lthumb 28.7653 36.2234
rfemur 26.9966 10.7611 35.4915
rtibia -4.45278e-014
rfoot -15.8923 0.744576
rtoes 5.33471
lfemur -26.3028 -2.22187 -4.12413
ltibia 39.7335
lfoot -12.1811 -13.3225
ltoes -2.60664
770
root 32.8656 16.8194 14.9988 -48.2958 77.0584 -44.2133
lowerback 14.8037 2.86424 4.55903
upperback 5.47504 4.70326 0.966009
thorax -2.20139 2.48131 -2.31352
lowerneck 3.91835 1.79162 10.3782
upperneck 0.29162 2.81297 -5.582
head -0.357359 1.46408 -3.70962
rclavicle 7.61345e-014 -2.06736e-014
rhumerus -43.108 3.38955 -81.2042
rradius 54.3692
rwrist 0.0253871
rhand -13.3317 -18.5552
rfingers 7.12502
rthumb 12.7734 -48.1445
lclavicle 7.61345e-014 -2.06736e-014
lhumerus -41.0079 -7.56379 75.9597
lradius 47.8951
lwrist -0.277391
lhand 3.56646 8.36539
lfingers 7.12502
lthumb 29.0017 36.1289
rfemur 27.0695 11.0058 35.3368
rtibia 0
rfoot -15.6485 0.423066
rtoes 4.77303
lfemur -26.192 -2.02424 -4.35976
ltibia 39.8852
lfoot -12.5306 -13.2253
ltoes -2.51737
771
root 32.9336 16.8319 14.9789 -46.8311 77.0094 -42.9135
lowerback 14.7656 2.9099 4.24938
upperback 5.43338 4.70424 0.709706
thorax -2.22823 2.47747 -2.40774
lowerneck 3.86068 1.85522 10.2488
upperneck 0.293695 2.88963 -5.20709
head -0.346455 1.4988 -3.55191
rclavicle -1.86858e-014 -1.11319e-014
rhumerus -43.3127 3.57083 -81.6142
rradius 54.285
rwrist -0.0200034
rhand -13.2625 -18.6578
rfingers 7.12502
rthumb 12.8402 -48.2428
lclavicle -1.86858e-014 -1.11319e-014
lhumerus -40.7182 -7.81186 75.8202
lradius 48.1105
lwrist -0.450341
lhand 3.75237 8.26241
lfingers 7.12502
lthumb 29.1793 35.9952
rfemur 27.104 11.2759 35.1218
rtibia 4.77083e-014
rfoot -15.3816 0.133219
rtoes 4.11739
lfemur -26.0769 -1.85118 -4.63781
ltibia 39.9661
lfoot -12.8362 -13.0902
ltoes -2.4233
772
root 32.9996 16.8462 14.9582 -45.2453 76.9627 -41.5158
lowerback 14.7264 2.95543 3.92629
upperback 5.3762 4.70341 0.455551
thorax -2.27219 2.47187 -2.49246
lowerneck 3.80439 1.92574 10.107
upperneck 0.303831 2.97533 -4.85314
head -0.332829 1.5386 -3.40008
rclavicle 1.8487e-014 -2.06736e-014
rhumerus -43.5353 3.84914 -82.0425
rradius 54.2127
rwrist -0.0278591
rhand -13.1152 -18.7202
rfingers 7.12502
rthumb 12.9821 -48.2963
lclavicle 1.8487e-014 -2.06736e-014
lhumerus -40.4583 -8.00968 75.6676
lradius 48.3658
lwrist -0.560679
lhand 3.87968 8.1377
lfingers 7.12502
lthumb 29.3008 35.8493
rfemur 27.0996 11.5678 34.8626
rtibia -9.54166e-015
rfoot -15.0979 -0.115424
rtoes 3.40526
lfemur -25.9686 -1.70381 -4.93936
ltibia 39.9944
lfoot -13.1048 -12.9211
ltoes -2.31706
773
root 33.0631 16.8616 14.937 -43.6081 76.9084 -40.0888
lowerback 14.6864 3.00119 3.60264
upperback 5.30642 4.7034 0.212513
thorax -2.32977 2.46617 -2.56582
lowerneck 3.76407 1.99821 9.95685
upperneck 0.297315 3.06458 -4.5311
head -0.327307 1.58034 -3.25912
rclavicle -1.2921e-014 1.82882e-014
rhumerus -43.7809 4.21803 -82.4824
rradius 54.1606
rwrist -0.0146841
rhand -12.9166 -18.7254
rfingers 7.12502
rthumb 13.1736 -48.2892
lclavicle -1.2921e-014 1.82882e-014
lhumerus -40.225 -8.15183 75.5083
lradius 48.6641
lwrist -0.586492
lhand 3.94623 8.02096
lfingers 7.12502
lthumb 29.3644 35.7215
rfemur 27.0559 11.8758 34.5756
rtibia 3.18055e-015
rfoot -14.8005 -0.313489
rtoes 2.68654
lfemur -25.8782 -1.5772 -5.24531
ltibia 39.988
lfoot -13.3353 -12.731
ltoes -2.19435
774
root 33.1239 16.8775 14.9156 -42.0071 76.8364 -38.7166
lowerback 14.651 3.04456 3.29662
upperback 5.22845 4.70374 -0.0143996
thorax -2.39827 2.46054 -2.63288
lowerneck 3.73416 2.07268 9.80184
upperneck 0.268418 3.1569 -4.24391
head -0.330618 1.6235 -3.13054
rclavicle 1.78906e-014 -8.74653e-015
rhumerus -44.042 4.65751 -82.9271
rradius 54.1323
rwrist 0.0297393
rhand -12.6464 -18.6738
rfingers 7.12502
rthumb 13.4341 -48.2206
lclavicle 1.78906e-014 -8.74653e-015
lhumerus -40.0092 -8.22993 75.3381
lradius 49.0001
lwrist -0.520304
lhand 3.95532 7.9292
lfingers 7.12502
lthumb 29.373 35.6282
rfemur 26.9775 12.1922 34.283
rtibia -6.36111e-015
rfoot -14.496 -0.457069
rtoes 1.96989
lfemur -25.8132 -1.46442 -5.53321
ltibia 39.9652
lfoot -13.5325 -12.5321
ltoes -2.05329
775
root 33.1817 16.8934 14.8944 -40.525 76.7357 -37.4786
lowerback 14.6232 3.08694 3.02824
upperback 5.14774 4.70938 -0.21994
thorax -2.47201 2.45788 -2.70006
lowerneck 3.71177 2.14679 9.6528
upperneck 0.207802 3.2492 -3.99764
head -0.345136 1.66628 -3.01837
rclavicle -2.92213e-014 1.35174e-014
rhumerus -44.311 5.13975 -83.366
rradius 54.1393
rwrist 0.0757827
rhand -12.2814 -18.5835
rfingers 7.12502
rthumb 13.7858 -48.1067
lclavicle -2.92213e-014 1.35174e-014
lhumerus -39.7944 -8.24482 75.156
lradius 49.3646
lwrist -0.371715
lhand 3.9224 7.86981
lfingers 7.12502
lthumb 29.3416 35.5743
rfemur 26.8683 12.5123 34.0088
rtibia 9.54166e-015
rfoot -14.1866 -0.541433
rtoes 1.2832
lfemur -25.7797 -1.35685 -5.77931
ltibia 39.9426
lfoot -13.7042 -12.3363
ltoes -1.89849
